<?xml version="1.0" encoding="utf-8"?>
<!-- Generator: Adobe Illustrator 26.0.1, SVG Export Plug-In . SVG Version: 6.00 Build 0)  -->
<!DOCTYPE svg PUBLIC "-//W3C//DTD SVG 1.1//EN" "http://www.w3.org/Graphics/SVG/1.1/DTD/svg11.dtd" [
	<!ENTITY ns_extend "http://ns.adobe.com/Extensibility/1.0/">
	<!ENTITY ns_ai "http://ns.adobe.com/AdobeIllustrator/10.0/">
	<!ENTITY ns_graphs "http://ns.adobe.com/Graphs/1.0/">
	<!ENTITY ns_vars "http://ns.adobe.com/Variables/1.0/">
	<!ENTITY ns_imrep "http://ns.adobe.com/ImageReplacement/1.0/">
	<!ENTITY ns_sfw "http://ns.adobe.com/SaveForWeb/1.0/">
	<!ENTITY ns_custom "http://ns.adobe.com/GenericCustomNamespace/1.0/">
	<!ENTITY ns_adobe_xpath "http://ns.adobe.com/XPath/1.0/">
]>
<svg version="1.1" id="Layer_1" xmlns:x="&ns_extend;" xmlns:i="&ns_ai;" xmlns:graph="&ns_graphs;"
	 xmlns="http://www.w3.org/2000/svg" xmlns:xlink="http://www.w3.org/1999/xlink" x="0px" y="0px" viewBox="0 0 841.9 266.2"
	 style="enable-background:new 0 0 841.9 266.2;" xml:space="preserve">
<metadata>
	<sfw  xmlns="&ns_sfw;">
		<slices></slices>
		<sliceSourceBounds  bottomLeftOrigin="true" height="80.2" width="651.4" x="93.6" y="-182.4"></sliceSourceBounds>
	</sfw>
</metadata>
<g>
	<path d="M399.3,159.8c13.4,0,22.7-8.2,22.7-20.5c0-12.3-9.3-20-22.7-20c-13.4,0-22.8,8-22.8,20.3
		C376.6,151.9,385.9,159.8,399.3,159.8z M399.3,129.8c8.9,0,10.7,5.5,10.7,9.8c0,8.5-7.2,9.8-10.7,9.8c-6.2,0-10.7-3.5-10.7-9.8
		C388.6,134.5,390.5,129.8,399.3,129.8z M443.4,151.1c0,4.8-4.4,8.7-9.7,8.7s-9.7-3.9-9.7-8.7c0-4.8,4.4-8.7,9.7-8.7
		S443.4,146.4,443.4,151.1z"/>
	<path d="M123.4,145.2c0-2.1-0.7-3.7-2.2-4.8c-1.5-1.1-4.1-2.3-7.9-3.5c-3.8-1.2-6.8-2.4-9-3.6c-6-3.3-9.1-7.7-9.1-13.2
		c0-2.9,0.8-5.4,2.4-7.7c1.6-2.3,3.9-4,7-5.3c3-1.3,6.4-1.9,10.2-1.9c3.8,0,7.2,0.7,10.1,2.1c3,1.4,5.3,3.3,6.9,5.8
		c1.6,2.5,2.5,5.4,2.5,8.5h-11c0-2.4-0.8-4.3-2.3-5.7c-1.5-1.4-3.7-2-6.5-2c-2.7,0-4.8,0.6-6.2,1.7c-1.5,1.1-2.2,2.6-2.2,4.5
		c0,1.7,0.9,3.2,2.6,4.3c1.7,1.2,4.3,2.3,7.7,3.3c6.2,1.9,10.8,4.2,13.6,7c2.8,2.8,4.3,6.2,4.3,10.4c0,4.6-1.7,8.2-5.2,10.8
		c-3.5,2.6-8.2,3.9-14.1,3.9c-4.1,0-7.8-0.7-11.2-2.2c-3.4-1.5-5.9-3.5-7.7-6.2c-1.8-2.6-2.6-5.6-2.6-9.1h11c0,5.9,3.5,8.8,10.5,8.8
		c2.6,0,4.6-0.5,6.1-1.6C122.7,148.5,123.4,147.1,123.4,145.2z"/>
	<path d="M151.3,109.9v9.7h6.8v7.7h-6.8v19.7c0,1.5,0.3,2.5,0.8,3.1c0.6,0.6,1.6,0.9,3.2,0.9c1.2,0,2.2-0.1,3.1-0.3v8
		c-2.1,0.6-4.2,0.9-6.4,0.9c-7.4,0-11.2-3.7-11.3-11.2v-21.3H137v-7.7h3.8v-9.7H151.3z"/>
	<path d="M185.6,155.1c-2.6,3.2-6.2,4.7-10.8,4.7c-4.2,0-7.5-1.2-9.7-3.7c-2.2-2.4-3.4-6-3.4-10.7v-25.9h10.5v25.5
		c0,4.1,1.9,6.2,5.6,6.2c3.6,0,6-1.2,7.4-3.7v-28h10.6v39.5h-9.9L185.6,155.1z"/>
	<path d="M199.9,139.1c0-6.2,1.4-11.1,4.1-14.7c2.8-3.7,6.5-5.5,11.3-5.5c3.8,0,7,1.4,9.5,4.3V103h10.6v56.1H226l-0.5-4.2
		c-2.6,3.3-6,4.9-10.1,4.9c-4.6,0-8.4-1.8-11.2-5.5C201.3,150.7,199.9,145.6,199.9,139.1z M210.5,139.8c0,3.7,0.6,6.5,1.9,8.5
		c1.3,2,3.2,3,5.6,3c3.3,0,5.6-1.4,6.9-4.1v-15.6c-1.3-2.8-3.6-4.1-6.8-4.1C213,127.5,210.5,131.6,210.5,139.8z"/>
	<path d="M259.3,159.8c-5.8,0-10.5-1.8-14.1-5.3c-3.6-3.6-5.5-8.3-5.5-14.2v-1c0-4,0.8-7.5,2.3-10.6c1.5-3.1,3.7-5.5,6.5-7.2
		c2.8-1.7,6-2.5,9.6-2.5c5.4,0,9.7,1.7,12.8,5.1c3.1,3.4,4.7,8.2,4.7,14.5v4.3h-25.2c0.3,2.6,1.4,4.6,3.1,6.2
		c1.7,1.6,3.9,2.3,6.5,2.3c4.1,0,7.2-1.5,9.5-4.4l5.2,5.8c-1.6,2.2-3.7,4-6.4,5.2C265.6,159.2,262.6,159.8,259.3,159.8z
		 M258.1,127.4c-2.1,0-3.8,0.7-5.1,2.1c-1.3,1.4-2.1,3.4-2.5,6.1h14.7v-0.8c0-2.3-0.7-4.2-1.9-5.4
		C262.1,128,260.4,127.4,258.1,127.4z"/>
	<path d="M289.3,119.6l0.3,4.6c2.8-3.5,6.6-5.3,11.4-5.3c4.2,0,7.3,1.2,9.3,3.7c2,2.5,3.1,6.1,3.1,11v25.5h-10.5v-25.3
		c0-2.2-0.5-3.9-1.5-4.9c-1-1-2.6-1.5-4.9-1.5c-3,0-5.2,1.3-6.7,3.8v27.9h-10.6v-39.5H289.3z"/>
	<path d="M331.2,109.9v9.7h6.8v7.7h-6.8v19.7c0,1.5,0.3,2.5,0.8,3.1c0.6,0.6,1.6,0.9,3.2,0.9c1.2,0,2.2-0.1,3.1-0.3v8
		c-2.1,0.6-4.2,0.9-6.4,0.9c-7.4,0-11.2-3.7-11.3-11.2v-21.3h-3.8v-7.7h3.8v-9.7H331.2z"/>
	<path d="M356.9,143.3l-3.8,3.8v12h-10.5V103h10.5v31.1l2-2.6l10.1-11.9h12.7l-14.3,16.5l15.5,23H367L356.9,143.3z"/>
	<path d="M436.7,119.6l0.3,4.6c2.8-3.5,6.6-5.3,11.4-5.3c4.2,0,7.3,1.2,9.3,3.7c2,2.5,3.1,6.1,3.1,11v25.5h-10.5v-25.3
		c0-2.2-0.5-3.9-1.5-4.9c-1-1-2.6-1.5-4.9-1.5c-3,0-5.2,1.3-6.7,3.8v6h-10.6v-17.6H436.7z"/>
	<path d="M469.2,159.1v-31.8h-5.3v-7.7h5.3v-3.4c0-4.4,1.3-7.9,3.8-10.3c2.5-2.4,6.1-3.7,10.7-3.7c1.5,0,3.2,0.2,5.4,0.7l-0.1,8.2
		c-0.9-0.2-1.9-0.3-3.2-0.3c-4,0-5.9,1.9-5.9,5.6v3.2h7.8v7.7h-7.8v31.8H469.2z"/>
	<path d="M507.6,159.8c-5.8,0-10.5-1.8-14.1-5.3c-3.6-3.6-5.5-8.3-5.5-14.2v-1c0-4,0.8-7.5,2.3-10.6c1.5-3.1,3.7-5.5,6.5-7.2
		c2.8-1.7,6-2.5,9.6-2.5c5.4,0,9.7,1.7,12.8,5.1c3.1,3.4,4.7,8.2,4.7,14.5v4.3h-25.2c0.3,2.6,1.4,4.6,3.1,6.2
		c1.7,1.6,3.9,2.3,6.5,2.3c4.1,0,7.2-1.5,9.5-4.4l5.2,5.8c-1.6,2.2-3.7,4-6.4,5.2C513.9,159.2,510.9,159.8,507.6,159.8z
		 M506.4,127.4c-2.1,0-3.8,0.7-5.1,2.1c-1.3,1.4-2.1,3.4-2.5,6.1h14.7v-0.8c0-2.3-0.7-4.2-1.9-5.4
		C510.3,128,508.6,127.4,506.4,127.4z"/>
	<path d="M550.1,129.5c-1.4-0.2-2.7-0.3-3.8-0.3c-4,0-6.6,1.4-7.8,4.1v25.8h-10.5v-39.5h10l0.3,4.7c2.1-3.6,5-5.4,8.8-5.4
		c1.2,0,2.3,0.2,3.3,0.5L550.1,129.5z"/>
	<path d="M570.4,159.8c-5.8,0-10.5-1.8-14.1-5.3c-3.6-3.6-5.5-8.3-5.5-14.2v-1c0-4,0.8-7.5,2.3-10.6c1.5-3.1,3.7-5.5,6.5-7.2
		c2.8-1.7,6-2.5,9.6-2.5c5.4,0,9.7,1.7,12.8,5.1c3.1,3.4,4.7,8.2,4.7,14.5v4.3h-25.2c0.3,2.6,1.4,4.6,3.1,6.2
		c1.7,1.6,3.9,2.3,6.5,2.3c4.1,0,7.2-1.5,9.5-4.4l5.2,5.8c-1.6,2.2-3.7,4-6.4,5.2C576.6,159.2,573.7,159.8,570.4,159.8z
		 M569.2,127.4c-2.1,0-3.8,0.7-5.1,2.1c-1.3,1.4-2.1,3.4-2.5,6.1h14.7v-0.8c0-2.3-0.7-4.2-1.9-5.4
		C573.1,128,571.4,127.4,569.2,127.4z"/>
	<path d="M600.1,119.6l0.3,4.6c2.8-3.5,6.6-5.3,11.4-5.3c4.2,0,7.3,1.2,9.3,3.7c2,2.5,3.1,6.1,3.1,11v25.5h-10.5v-25.3
		c0-2.2-0.5-3.9-1.5-4.9c-1-1-2.6-1.5-4.9-1.5c-3,0-5.2,1.3-6.7,3.8v27.9h-10.6v-39.5H600.1z"/>
	<path d="M651.4,148.2c0-1.3-0.6-2.3-1.9-3c-1.3-0.7-3.3-1.4-6.1-2c-9.4-2-14.1-6-14.1-12c0-3.5,1.5-6.4,4.4-8.8
		c2.9-2.3,6.7-3.5,11.4-3.5c5,0,9,1.2,12,3.5c3,2.4,4.5,5.4,4.5,9.2H651c0-1.5-0.5-2.8-1.5-3.7c-1-1-2.5-1.5-4.6-1.5
		c-1.8,0-3.2,0.4-4.1,1.2c-1,0.8-1.5,1.8-1.5,3.1c0,1.2,0.6,2.1,1.7,2.8c1.1,0.7,3,1.3,5.6,1.9c2.6,0.5,4.8,1.1,6.6,1.8
		c5.6,2,8.4,5.6,8.4,10.6c0,3.6-1.5,6.5-4.6,8.7s-7.1,3.3-12,3.3c-3.3,0-6.2-0.6-8.8-1.8c-2.6-1.2-4.6-2.8-6-4.9
		c-1.5-2.1-2.2-4.3-2.2-6.7h10c0.1,1.9,0.8,3.3,2.1,4.3c1.3,1,3,1.5,5.2,1.5c2,0,3.5-0.4,4.6-1.2
		C650.9,150.4,651.4,149.4,651.4,148.2z"/>
	<path d="M684.4,159.8c-5.8,0-10.5-1.8-14.1-5.3c-3.6-3.6-5.5-8.3-5.5-14.2v-1c0-4,0.8-7.5,2.3-10.6c1.5-3.1,3.7-5.5,6.5-7.2
		c2.8-1.7,6-2.5,9.6-2.5c5.4,0,9.7,1.7,12.8,5.1c3.1,3.4,4.7,8.2,4.7,14.5v4.3h-25.2c0.3,2.6,1.4,4.6,3.1,6.2
		c1.7,1.6,3.9,2.3,6.5,2.3c4.1,0,7.2-1.5,9.5-4.4l5.2,5.8c-1.6,2.2-3.7,4-6.4,5.2C690.6,159.2,687.6,159.8,684.4,159.8z
		 M683.1,127.4c-2.1,0-3.8,0.7-5.1,2.1c-1.3,1.4-2.1,3.4-2.5,6.1h14.7v-0.8c0-2.3-0.7-4.2-1.9-5.4
		C687.1,128,685.4,127.4,683.1,127.4z"/>
	<path d="M714,119.6l0.3,4.6c2.8-3.5,6.6-5.3,11.4-5.3c4.2,0,7.3,1.2,9.3,3.7c2,2.5,3.1,6.1,3.1,11v25.5h-10.5v-25.3
		c0-2.2-0.5-3.9-1.5-4.9c-1-1-2.6-1.5-4.9-1.5c-3,0-5.2,1.3-6.7,3.8v27.9h-10.6v-39.5H714z"/>
	<g>
		<polygon points="733.6,114.6 735.5,114.6 735.5,119.7 736.5,119.7 736.5,114.6 738.4,114.6 738.4,113.7 733.6,113.7 		"/>
		<polygon points="743.7,113.7 742,118.2 740.2,113.8 740.2,113.7 739,113.7 739,119.7 740,119.7 740,117.4 739.9,115.7 
			741.5,119.7 741.6,119.7 742.3,119.7 744,115.7 743.9,117.4 743.9,119.7 745,119.7 745,113.7 		"/>
	</g>
</g>
<g>
	<path d="M564.9,176.8h-4.1l-0.9,2.5H558l4-10.7h1.7l4,10.7h-1.9L564.9,176.8z M561.3,175.3h3.1l-1.5-4.4L561.3,175.3z"/>
	<path d="M570.6,177l1.7-5.7h1.8l-2.7,7.9h-1.5l-2.8-7.9h1.8L570.6,177z"/>
	<path d="M586.7,174.2c0,1-0.2,2-0.5,2.8c-0.4,0.8-0.9,1.4-1.5,1.8c-0.7,0.4-1.4,0.6-2.3,0.6c-0.9,0-1.6-0.2-2.3-0.6
		c-0.7-0.4-1.2-1-1.6-1.8c-0.4-0.8-0.6-1.7-0.6-2.7v-0.6c0-1,0.2-2,0.6-2.8c0.4-0.8,0.9-1.4,1.6-1.8c0.7-0.4,1.4-0.6,2.3-0.6
		s1.6,0.2,2.3,0.6c0.7,0.4,1.2,1,1.6,1.8c0.4,0.8,0.6,1.7,0.6,2.7V174.2z M584.9,173.7c0-1.2-0.2-2.1-0.7-2.7
		c-0.4-0.6-1.1-0.9-1.9-0.9c-0.8,0-1.4,0.3-1.9,0.9c-0.5,0.6-0.7,1.5-0.7,2.7v0.6c0,1.2,0.2,2.1,0.7,2.7c0.5,0.6,1.1,1,1.9,1
		c0.8,0,1.5-0.3,1.9-0.9c0.4-0.6,0.7-1.5,0.7-2.7V173.7z"/>
	<path d="M590.1,171.4l0.1,0.8c0.6-0.6,1.3-1,2.3-1c1.1,0,1.8,0.4,2.2,1.2c0.6-0.8,1.4-1.2,2.4-1.2c0.9,0,1.5,0.2,2,0.7
		c0.4,0.5,0.6,1.2,0.7,2.1v5.2h-1.8v-5.2c0-0.5-0.1-0.9-0.3-1.1c-0.2-0.2-0.6-0.4-1.1-0.4c-0.4,0-0.7,0.1-1,0.3
		c-0.3,0.2-0.4,0.5-0.5,0.9l0,5.4h-1.8v-5.2c0-0.9-0.5-1.4-1.4-1.4c-0.7,0-1.2,0.3-1.5,0.9v5.7h-1.8v-7.9H590.1z"/>
	<path d="M605,179.4c-1.1,0-2-0.4-2.7-1.1c-0.7-0.7-1.1-1.7-1.1-2.8v-0.2c0-0.8,0.2-1.5,0.5-2.1c0.3-0.6,0.7-1.1,1.3-1.5
		c0.6-0.3,1.2-0.5,1.8-0.5c1.1,0,1.9,0.3,2.5,1c0.6,0.7,0.9,1.7,0.9,2.9v0.7H603c0.1,0.7,0.3,1.2,0.7,1.6c0.4,0.4,0.9,0.6,1.4,0.6
		c0.8,0,1.5-0.3,2-1l1,0.9c-0.3,0.5-0.7,0.8-1.3,1.1C606.2,179.3,605.6,179.4,605,179.4z M604.7,172.7c-0.5,0-0.9,0.2-1.2,0.5
		c-0.3,0.3-0.5,0.8-0.6,1.4h3.4v-0.1c0-0.6-0.2-1-0.5-1.4C605.6,172.8,605.2,172.7,604.7,172.7z"/>
	<path d="M609.2,175.3c0-1.2,0.3-2.2,0.9-2.9c0.6-0.7,1.3-1.1,2.3-1.1c0.9,0,1.6,0.3,2.1,0.9l0.1-0.8h1.6v7.7c0,1-0.3,1.9-1,2.5
		c-0.6,0.6-1.5,0.9-2.6,0.9c-0.6,0-1.1-0.1-1.7-0.4c-0.6-0.2-1-0.6-1.3-0.9l0.8-1.1c0.5,0.6,1.2,1,2,1c0.6,0,1.1-0.2,1.4-0.5
		c0.3-0.3,0.5-0.8,0.5-1.4v-0.5c-0.5,0.6-1.2,0.9-2.1,0.9c-0.9,0-1.7-0.4-2.3-1.1C609.5,177.6,609.2,176.6,609.2,175.3z M611,175.4
		c0,0.8,0.2,1.4,0.5,1.9c0.3,0.5,0.8,0.7,1.4,0.7c0.7,0,1.2-0.3,1.6-0.9v-3.5c-0.3-0.6-0.9-0.9-1.6-0.9c-0.6,0-1,0.2-1.4,0.7
		C611.1,173.8,611,174.5,611,175.4z"/>
	<path d="M622.8,179.3c-0.1-0.2-0.1-0.4-0.2-0.7c-0.6,0.6-1.3,0.9-2.1,0.9c-0.8,0-1.4-0.2-1.9-0.7c-0.5-0.5-0.8-1-0.8-1.7
		c0-0.8,0.3-1.5,0.9-1.9c0.6-0.5,1.5-0.7,2.7-0.7h1.1v-0.5c0-0.4-0.1-0.7-0.3-1c-0.2-0.2-0.6-0.4-1-0.4c-0.4,0-0.7,0.1-1,0.3
		c-0.3,0.2-0.4,0.5-0.4,0.8h-1.8c0-0.4,0.1-0.8,0.4-1.2c0.3-0.4,0.7-0.7,1.2-0.9c0.5-0.2,1-0.3,1.7-0.3c0.9,0,1.7,0.2,2.2,0.7
		c0.6,0.5,0.8,1.1,0.8,2v3.6c0,0.7,0.1,1.3,0.3,1.7v0.1H622.8z M620.8,178c0.4,0,0.7-0.1,1-0.3c0.3-0.2,0.5-0.4,0.7-0.7v-1.5h-1
		c-0.7,0-1.2,0.1-1.5,0.3c-0.3,0.2-0.5,0.6-0.5,1c0,0.3,0.1,0.6,0.3,0.8C620.1,177.9,620.4,178,620.8,178z"/>
	<path d="M633.1,175.4c0,1.2-0.3,2.2-0.8,2.9s-1.3,1.1-2.2,1.1c-0.9,0-1.6-0.3-2.1-0.9v3.8h-1.8v-11h1.6l0.1,0.8
		c0.5-0.6,1.2-1,2.1-1c1,0,1.7,0.4,2.3,1.1c0.5,0.7,0.8,1.7,0.8,3V175.4z M631.3,175.3c0-0.8-0.2-1.4-0.5-1.9
		c-0.3-0.5-0.8-0.7-1.4-0.7c-0.7,0-1.3,0.3-1.6,0.9v3.5c0.3,0.6,0.8,0.9,1.6,0.9c0.6,0,1-0.2,1.3-0.7
		C631.1,176.9,631.3,176.2,631.3,175.3z"/>
	<path d="M634.2,175.3c0-0.8,0.2-1.5,0.5-2.1c0.3-0.6,0.7-1.1,1.3-1.4s1.2-0.5,1.9-0.5c1.1,0,1.9,0.3,2.6,1c0.7,0.7,1,1.6,1.1,2.7
		l0,0.4c0,0.8-0.2,1.5-0.5,2.1c-0.3,0.6-0.7,1.1-1.3,1.4c-0.6,0.3-1.2,0.5-1.9,0.5c-1.1,0-2-0.4-2.7-1.1
		C634.6,177.6,634.2,176.6,634.2,175.3L634.2,175.3z M636,175.4c0,0.8,0.2,1.5,0.5,1.9c0.3,0.5,0.8,0.7,1.4,0.7
		c0.6,0,1.1-0.2,1.4-0.7c0.3-0.5,0.5-1.2,0.5-2.1c0-0.8-0.2-1.4-0.5-1.9c-0.3-0.5-0.8-0.7-1.4-0.7c-0.6,0-1,0.2-1.4,0.7
		C636.2,173.8,636,174.5,636,175.4z"/>
	<path d="M643.1,169.3c0-0.3,0.1-0.5,0.3-0.7c0.2-0.2,0.4-0.3,0.7-0.3s0.6,0.1,0.7,0.3s0.3,0.4,0.3,0.7c0,0.3-0.1,0.5-0.3,0.7
		s-0.4,0.3-0.7,0.3s-0.6-0.1-0.7-0.3C643.2,169.8,643.1,169.6,643.1,169.3z M645,179.3h-1.8v-7.9h1.8V179.3z"/>
	<path d="M648.6,171.4l0.1,0.9c0.6-0.7,1.4-1.1,2.3-1.1c1.7,0,2.5,0.9,2.5,2.8v5.2h-1.8v-5.1c0-0.5-0.1-0.9-0.3-1.1
		c-0.2-0.2-0.6-0.4-1.1-0.4c-0.7,0-1.3,0.3-1.6,1v5.6h-1.8v-7.9H648.6z"/>
	<path d="M657.5,169.4v1.9h1.4v1.3h-1.4v4.4c0,0.3,0.1,0.5,0.2,0.7c0.1,0.1,0.3,0.2,0.6,0.2c0.2,0,0.4,0,0.6-0.1v1.4
		c-0.4,0.1-0.8,0.2-1.2,0.2c-1.4,0-2.1-0.8-2.1-2.3v-4.5h-1.3v-1.3h1.3v-1.9H657.5z"/>
	<path d="M668.2,177.1c0-0.3-0.1-0.6-0.4-0.7c-0.3-0.2-0.7-0.3-1.3-0.4s-1.1-0.3-1.5-0.5c-0.9-0.4-1.3-1.1-1.3-1.9
		c0-0.7,0.3-1.3,0.9-1.7c0.6-0.5,1.3-0.7,2.2-0.7c0.9,0,1.7,0.2,2.3,0.7c0.6,0.5,0.9,1.1,0.9,1.8h-1.8c0-0.3-0.1-0.6-0.4-0.9
		c-0.3-0.2-0.6-0.3-1-0.3c-0.4,0-0.7,0.1-1,0.3c-0.2,0.2-0.4,0.4-0.4,0.7c0,0.3,0.1,0.5,0.3,0.6s0.7,0.3,1.4,0.5
		c0.7,0.2,1.2,0.3,1.6,0.5c0.4,0.2,0.7,0.5,0.9,0.8c0.2,0.3,0.3,0.7,0.3,1.1c0,0.7-0.3,1.3-0.9,1.7c-0.6,0.4-1.4,0.7-2.3,0.7
		c-0.6,0-1.2-0.1-1.7-0.4s-0.9-0.6-1.2-1c-0.3-0.4-0.4-0.9-0.4-1.3h1.7c0,0.4,0.2,0.7,0.5,1c0.3,0.2,0.7,0.3,1.2,0.3
		c0.5,0,0.8-0.1,1.1-0.3C668,177.7,668.2,177.4,668.2,177.1z"/>
	<path d="M674.9,179.4c-1.1,0-2-0.4-2.7-1.1c-0.7-0.7-1.1-1.7-1.1-2.8v-0.2c0-0.8,0.2-1.5,0.5-2.1c0.3-0.6,0.7-1.1,1.3-1.5
		c0.6-0.3,1.2-0.5,1.8-0.5c1.1,0,1.9,0.3,2.5,1c0.6,0.7,0.9,1.7,0.9,2.9v0.7h-5.2c0.1,0.7,0.3,1.2,0.7,1.6c0.4,0.4,0.9,0.6,1.4,0.6
		c0.8,0,1.5-0.3,2-1l1,0.9c-0.3,0.5-0.7,0.8-1.3,1.1C676.2,179.3,675.6,179.4,674.9,179.4z M674.7,172.7c-0.5,0-0.9,0.2-1.2,0.5
		c-0.3,0.3-0.5,0.8-0.6,1.4h3.4v-0.1c0-0.6-0.2-1-0.5-1.4C675.6,172.8,675.2,172.7,674.7,172.7z"/>
	<path d="M679.2,175.3c0-1.2,0.3-2.2,0.8-2.9c0.6-0.7,1.3-1.1,2.3-1.1c0.8,0,1.5,0.3,2,0.9v-4.1h1.8v11.2h-1.6l-0.1-0.8
		c-0.5,0.6-1.2,1-2.1,1c-0.9,0-1.7-0.4-2.3-1.1C679.5,177.6,679.2,176.6,679.2,175.3z M681,175.4c0,0.8,0.2,1.4,0.5,1.9
		c0.3,0.5,0.8,0.7,1.3,0.7c0.7,0,1.3-0.3,1.6-1v-3.4c-0.3-0.6-0.9-1-1.6-1c-0.6,0-1,0.2-1.3,0.7S681,174.5,681,175.4z"/>
	<path d="M692.7,179.3c-0.1-0.2-0.1-0.4-0.2-0.7c-0.6,0.6-1.3,0.9-2.1,0.9c-0.8,0-1.4-0.2-1.9-0.7c-0.5-0.5-0.8-1-0.8-1.7
		c0-0.8,0.3-1.5,0.9-1.9c0.6-0.5,1.5-0.7,2.7-0.7h1.1v-0.5c0-0.4-0.1-0.7-0.3-1c-0.2-0.2-0.6-0.4-1-0.4c-0.4,0-0.7,0.1-1,0.3
		c-0.3,0.2-0.4,0.5-0.4,0.8h-1.8c0-0.4,0.1-0.8,0.4-1.2c0.3-0.4,0.7-0.7,1.2-0.9c0.5-0.2,1-0.3,1.7-0.3c0.9,0,1.7,0.2,2.2,0.7
		c0.6,0.5,0.8,1.1,0.8,2v3.6c0,0.7,0.1,1.3,0.3,1.7v0.1H692.7z M690.8,178c0.4,0,0.7-0.1,1-0.3c0.3-0.2,0.5-0.4,0.7-0.7v-1.5h-1
		c-0.7,0-1.2,0.1-1.5,0.3c-0.3,0.2-0.5,0.6-0.5,1c0,0.3,0.1,0.6,0.3,0.8C690.1,177.9,690.4,178,690.8,178z"/>
	<path d="M697.7,171.4l0.1,0.9c0.6-0.7,1.4-1.1,2.3-1.1c1.7,0,2.5,0.9,2.5,2.8v5.2h-1.8v-5.1c0-0.5-0.1-0.9-0.3-1.1
		c-0.2-0.2-0.6-0.4-1.1-0.4c-0.7,0-1.3,0.3-1.6,1v5.6h-1.8v-7.9H697.7z"/>
	<path d="M715.2,179.3h-7.2v-1.2l3.6-3.9c0.5-0.6,0.9-1,1.1-1.4c0.2-0.4,0.3-0.8,0.3-1.2c0-0.5-0.1-0.9-0.4-1.2
		c-0.3-0.3-0.7-0.5-1.2-0.5c-0.6,0-1,0.2-1.3,0.5c-0.3,0.4-0.5,0.8-0.5,1.4h-1.8c0-0.6,0.1-1.2,0.4-1.8c0.3-0.5,0.7-0.9,1.3-1.2
		c0.5-0.3,1.2-0.4,1.9-0.4c1,0,1.9,0.3,2.5,0.8c0.6,0.5,0.9,1.2,0.9,2.2c0,0.5-0.1,1.1-0.5,1.7c-0.3,0.6-0.8,1.2-1.5,2l-2.6,2.8h5
		V179.3z"/>
	<path d="M723.5,174.8c0,1.5-0.3,2.7-0.9,3.5c-0.6,0.8-1.4,1.2-2.6,1.2c-1.2,0-2-0.4-2.6-1.1c-0.6-0.8-0.9-1.9-0.9-3.4v-1.8
		c0-1.5,0.3-2.7,0.9-3.4c0.6-0.8,1.4-1.1,2.6-1.1c1.2,0,2,0.4,2.6,1.1c0.6,0.7,0.9,1.9,0.9,3.4V174.8z M721.7,172.8
		c0-1-0.1-1.7-0.4-2.2s-0.7-0.7-1.3-0.7c-0.6,0-1,0.2-1.3,0.7c-0.3,0.4-0.4,1.1-0.4,2.1v2.4c0,1,0.1,1.7,0.4,2.2s0.7,0.7,1.3,0.7
		c0.6,0,1-0.2,1.3-0.7c0.3-0.5,0.4-1.2,0.4-2.1V172.8z"/>
	<path d="M729,179.3h-1.8v-8.6l-2.6,0.9v-1.5l4.2-1.5h0.2V179.3z"/>
	<path d="M731.7,174l0.6-5.4h5.7v1.5h-4.2l-0.3,2.5c0.5-0.3,1-0.4,1.7-0.4c1,0,1.8,0.3,2.4,1c0.6,0.6,0.8,1.5,0.8,2.6
		c0,1.1-0.3,1.9-0.9,2.6s-1.5,1-2.6,1c-1,0-1.8-0.3-2.4-0.8c-0.6-0.6-1-1.3-1-2.2h1.7c0.1,0.5,0.3,0.9,0.6,1.2
		c0.3,0.3,0.7,0.4,1.2,0.4c0.5,0,1-0.2,1.3-0.6c0.3-0.4,0.5-0.9,0.5-1.6c0-0.6-0.2-1.2-0.5-1.5c-0.3-0.4-0.8-0.6-1.4-0.6
		c-0.3,0-0.6,0-0.8,0.1c-0.2,0.1-0.5,0.3-0.7,0.5L731.7,174z"/>
</g>
</svg>
